<?xml version="1.0" encoding="utf-8"?>
<svg height="768px" viewBox="0 0 72 72" width="768px" xmlns="http://www.w3.org/2000/svg">
  <path d="M 71.5 36 C 71.5 55.605 55.607 71.5 36 71.5 C 16.395 71.5 0.5 55.605 0.5 36 C 0.5 16.393 16.395 0.5 36 0.5 C 55.607 0.5 71.5 16.393 71.5 36 Z" style="fill-rule: nonzero; fill: rgb(169, 231, 247); stroke: rgb(231, 244, 251); paint-order: fill;"/>
  <path d="M 69.41 36 C 69.41 54.451 54.453 69.41 36 69.41 C 17.549 69.41 2.59 54.451 2.59 36 C 2.59 17.547 17.549 2.59 36 2.59 C 54.453 2.59 69.41 17.547 69.41 36 Z" style="stroke: rgb(2, 60, 88); paint-order: fill; fill-rule: nonzero; stroke-width: 3px; fill: rgb(169, 231, 247);"/>
  <g id="Lock_Password" data-name="Lock Password" transform="matrix(1, 0, 0, 1, 12, 11.99002)">
    <rect fill="#f5f7ff" height="26" rx="3" width="32" x="8" y="21"/>
    <path d="m40 24v20a3 3 0 0 1 -3 3h-26a3 3 0 0 1 -3-3h26a3 3 0 0 0 3-3v-20a3 3 0 0 1 3 3z" fill="#ccd3eb"/>
    <path d="m31 21v-9a7 7 0 0 0 -14 0v9h-4v-9a11 11 0 0 1 22 0v9z" fill="#ccd3eb"/>
    <path d="m13 18h4v3h-4z" fill="#96a1c3"/>
    <path d="m31 18h4v3h-4z" fill="#96a1c3"/>
    <rect fill="#0074ff" height="14" rx="2" width="46" x="1" y="28"/>
    <g fill="#f5f7ff">
      <path d="m21.1 32.63-1.1.64v-1.27a1 1 0 0 0 -2 0v1.27l-1.1-.64a1 1 0 0 0 -1 1.74l1.1.63-1.1.63a1 1 0 0 0 1 1.74l1.1-.64v1.27a1 1 0 0 0 2 0v-1.27l1.1.64a1 1 0 0 0 1-1.74l-1.1-.63 1.1-.63a1 1 0 0 0 -1-1.74z"/>
      <path d="m11.1 32.63-1.1.64v-1.27a1 1 0 0 0 -2 0v1.27l-1.1-.64a1 1 0 0 0 -1 1.74l1.1.63-1.1.63a1 1 0 0 0 1 1.74l1.1-.64v1.27a1 1 0 0 0 2 0v-1.27l1.1.64a1 1 0 0 0 1-1.74l-1.1-.63 1.1-.63a1 1 0 0 0 -1-1.74z"/>
      <path d="m31.1 32.63-1.1.64v-1.27a1 1 0 0 0 -2 0v1.27l-1.1-.64a1 1 0 0 0 -1 1.74l1.1.63-1.1.63a1 1 0 0 0 1 1.74l1.1-.64v1.27a1 1 0 0 0 2 0v-1.27l1.1.64a1 1 0 0 0 1-1.74l-1.1-.63 1.1-.63a1 1 0 0 0 -1-1.74z"/>
      <path d="m41.1 32.63-1.1.64v-1.27a1 1 0 0 0 -2 0v1.27l-1.1-.64a1 1 0 0 0 -1 1.74l1.1.63-1.1.63a1 1 0 0 0 1 1.74l1.1-.64v1.27a1 1 0 0 0 2 0v-1.27l1.1.64a1 1 0 0 0 1-1.74l-1.1-.63 1.1-.63a1 1 0 0 0 -1-1.74z"/>
    </g>
    <path d="m19.29 28.71a1 1 0 0 0 1.69-.9 1 1 0 0 0 -.6-.73 1 1 0 0 0 -1.09 1.63z" fill="#033c59"/>
    <path d="m45 27h-4v-3a4 4 0 0 0 -4-4h-1v-8a12 12 0 0 0 -3.51-8.49c-7-7-19.52-2.93-20.44 7.4a1 1 0 0 0 2 .18 10 10 0 0 1 17-6.16c3.7 3.67 2.95 7.42 2.95 15.07h-2v-8a8 8 0 0 0 -16 0v8h-2v-5a1 1 0 0 0 -2 0v5h-1a4 4 0 0 0 -4 4v3h-4a3 3 0 0 0 -3 3v10a3 3 0 0 0 3 3h4v1a4 4 0 0 0 4 4h19a1 1 0 0 0 0-2h-19a2 2 0 0 1 -2-2v-1h30v1a2 2 0 0 1 -2 2h-3a1 1 0 0 0 0 2h3a4 4 0 0 0 4-4v-1h4a3 3 0 0 0 3-3v-10a3 3 0 0 0 -3-3zm-27-15a6 6 0 0 1 12 0v8h-12zm28 28a1 1 0 0 1 -1 1h-42a1 1 0 0 1 -1-1v-10a1 1 0 0 1 1-1h13a1 1 0 0 0 0-2h-7v-3a2 2 0 0 1 2-2h26a2 2 0 0 1 2 2v3h-15a1 1 0 0 0 0 2h21a1 1 0 0 1 1 1z" fill="#033c59"/>
  </g>
</svg>